<?xml version="1.0" encoding="UTF-8"?>
<svg viewBox="0 0 16 16" xmlns="http://www.w3.org/2000/svg">
    <path fill="currentColor" d="M2 1C.892 1 0 1.892 0 3v9c0 1.108.892 2 2 2h12c1.108 0 2-.892 2-2V3c0-1.108-.892-2-2-2Zm0 1h12c.554 0 1 .446 1 1H1c0-.554.446-1 1-1M1 3h14v9c0 .554-.446 1-1 1H2c-.554 0-1-.446-1-1Z" color="#363636"/>
    <path fill="#363636" d="M9.9 4.153c-.278 0-.5.223-.5.5v2a.5.5 0 0 0 .5.5h2a.5.5 0 0 0 .5-.5v-2a.5.5 0 0 0-.5-.5Zm.5 1h1v1h-1zm-6 1c-.555 0-1 .446-1 1v3c0 .554.445 1 1 1h3c.553 0 1-.446 1-1v-3c0-.554-.447-1-1-1Zm0 1h3v3h-3Z"/>
</svg>
