<?xml version="1.0" encoding="UTF-8"?>
<svg viewBox="0 0 16 16" xmlns="http://www.w3.org/2000/svg">
    <path fill-rule="evenodd" d="M3.2 2.667c-.442 0-.8.341-.8.762v9.142c0 .421.358.762.8.762s.8-.341.8-.762V3.43c0-.421-.358-.762-.8-.762m6.4 3.81c0-.421-.358-.763-.8-.763H7.2c-.442 0-.8.342-.8.762v3.048c0 .42.358.762.8.762h1.6c.442 0 .8-.342.8-.762zm1.6 3.809c0 .842-.716 1.524-1.6 1.524H6.4c-.884 0-1.6-.682-1.6-1.524V5.714c0-.842.716-1.524 1.6-1.524h3.2c.884 0 1.6.682 1.6 1.524zm2.4 2.285V3.43c0-.421-.358-.762-.8-.762s-.8.341-.8.762v9.142c0 .421.358.762.8.762s.8-.341.8-.762m.8-10.666v12.19c0 .42.358.762.8.762s.8-.341.8-.762V1.905c0-.42-.358-.762-.8-.762s-.8.341-.8.762M.8 14.857c-.442 0-.8-.341-.8-.762V1.905c0-.42.358-.762.8-.762s.8.341.8.762v12.19c0 .42-.358.762-.8.762"/>
</svg>
