<?xml version="1.0" encoding="UTF-8"?>
<!--
SPDX-FileCopyrightText: 2021 Romain Vigier <contact AT romainvigier.fr>
SPDX-License-Identifier: CC-BY-SA-4.0
-->
<svg viewBox="0 0 16 16" xmlns="http://www.w3.org/2000/svg">
    <path d="M3.758 2.03a1 1 0 0 0-.615.456l-3 5a1 1 0 0 0 0 1.028l3 5a1 1 0 0 0 1.37.343 1 1 0 0 0 .344-1.37L2.166 8l2.691-4.486a1 1 0 0 0-.343-1.371 1 1 0 0 0-.756-.114m8.484.001a1 1 0 0 0-.756.113 1 1 0 0 0-.344 1.37L13.834 8l-2.692 4.486a1 1 0 0 0 .344 1.371 1 1 0 0 0 1.371-.343l3-5a1 1 0 0 0 0-1.028l-3-5a1 1 0 0 0-.615-.457M9.195 2.02a1 1 0 0 0-1.176.785l-2 10a1 1 0 0 0 .786 1.175 1 1 0 0 0 1.175-.785l2-10a1 1 0 0 0-.785-1.175"/>
</svg>
