<?xml version="1.0" encoding="UTF-8"?>
<!--
SPDX-FileCopyrightText: 2021 Romain Vigier <contact AT romainvigier.fr>
SPDX-License-Identifier: CC-BY-SA-4.0
-->
<svg width="16" height="16" version="1.1" viewBox="0 0 16 16" xmlns="http://www.w3.org/2000/svg">
 <path d="m3.7578 2.0293a1 1 0 0 0-0.61523 0.45703l-3 5a1.0001 1.0001 0 0 0 0 1.0273l3 5a1 1 0 0 0 1.3711 0.34375 1 1 0 0 0 0.34375-1.3711l-2.6914-4.4863 2.6914-4.4863a1 1 0 0 0-0.34375-1.3711 1 1 0 0 0-0.75586-0.11328z"/>
 <path d="m12.242 2.0293a1 1 0 0 0-0.75586 0.11328 1 1 0 0 0-0.34375 1.3711l2.6914 4.4863-2.6914 4.4863a1 1 0 0 0 0.34375 1.3711 1 1 0 0 0 1.3711-0.34375l3-5a1.0001 1.0001 0 0 0 0-1.0273l-3-5a1 1 0 0 0-0.61523-0.45703z"/>
 <path d="m9.1953 2.0195a1 1 0 0 0-1.1758 0.78516l-2 10a1 1 0 0 0 0.78516 1.1758 1 1 0 0 0 1.1758-0.78516l2-10a1 1 0 0 0-0.78516-1.1758z"/>
</svg>
