<?xml version="1.0" encoding="UTF-8"?>
<svg viewBox="0 0 16 16" xmlns="http://www.w3.org/2000/svg">
    <g stroke-width="0.858">
        <g fill-opacity="0" stroke-width="0.71">
            <g stroke-width="0.761">
                <path fill-opacity="1" d="M.952 10.574a.707.461 0 0 1-.41-.096.772.746 0 0 1-.337-.31A1.43 1.382 0 0 1 0 9.445v-4.57c0-.256.066-.509.205-.725a.772.746 0 0 1 .336-.31.94.908 0 0 1 .41-.093.707.461 0 0 1 .434.1l1.69.872c.257.132.581.42.581.811v3.26c0 .393-.324.678-.58.81l-1.691.875a.707.461 0 0 1-.433.101m.174-.837 1.652-.672c.143-.073.184-.065.184-.276V5.53c0-.212-.042-.201-.184-.275l-1.652-.673c-.033.097-.078.188-.078.293v4.568c0 .105.045.195.078.293" color="#000"/>
                <path fill-opacity="0.965" d="M15.049 10.574a.707.461 0 0 1-.434-.099l-1.692-.874a1.613 1.052 0 0 1-.58-.811V5.53c0-.391.325-.678.581-.81l1.692-.873a.94.908 0 0 1 .433-.101.707.461 0 0 1 .412.095.75.75 0 0 1 .337.31c.136.215.202.468.202.725v4.568c0 .255-.065.509-.202.726a.763.736 0 0 1-.337.31.707.461 0 0 1-.412.094m-.175-.837c.034-.098.08-.188.08-.293V4.876c0-.105-.045-.196-.08-.293l-1.613.673c-.142.073-.185.064-.185.274v3.26c0 .21.043.201.185.275z" color="#000"/>
                <path fill-opacity="1" d="M4.117 3.516c-.251 0-.482.05-.678.16-.196.108-.398.312-.398.612v5.722c0 .3.202.503.398.613s.427.16.678.16h7.765c.25 0 .481-.051.677-.16s.399-.313.399-.613V4.288c0-.3-.203-.503-.399-.612a1.4 1.4 0 0 0-.677-.16zm0 .737h7.765c.152 0 .286.038.353.075s.026.037.026-.04v5.722c0-.076.041-.077-.026-.04a.8.8 0 0 1-.354.077H4.117a.8.8 0 0 1-.354-.076c-.067-.038-.026-.037-.026.039V4.288c0 .077-.041.077.026.04a.8.8 0 0 1 .354-.075" class="foreground-fill"/>
            </g>
            <path fill-opacity="1" d="m11.206 11.89-6.397.013a.334.264 0 0 0-.333.265.334.264 0 0 0 .335.264l6.397-.013a.334.264 0 0 0 .333-.264.334.264 0 0 0-.335-.264" class="foreground-fill"/>
        </g>
        <path d="M7.337 5.978c-.435 0-.754.304-.754.637v1.123c0 .334.32.639.754.639H8.6c.435 0 .755-.305.755-.639V6.615c0-.333-.32-.637-.755-.637zm0 .527H8.6c.031 0 .088.029.088.11v1.123c0 .082-.057.11-.088.11H7.338c-.032 0-.086-.028-.086-.11V6.615c0-.081.055-.11.086-.11" class="foreground-fill"/>
    </g>
</svg>
