<?xml version="1.0" encoding="UTF-8"?>
<svg viewBox="0 0 16 16" xmlns="http://www.w3.org/2000/svg">
    <g stroke="#000" stroke-width="0.858" transform="matrix(.935955 0 0 .7234 .726 .921)">
        <g fill-opacity="0" stroke-width="0.71">
            <g stroke-width="0.761" transform="matrix(.908657 0 0 1.39834 .658 -2.268)">
                <path fill-opacity="1" stroke="none" d="M-.444 11.47a.677.457 0 0 1-.392-.095.74.74 0 0 1-.323-.307 1.37 1.37 0 0 1-.196-.718V5.82c0-.254.064-.505.196-.719a.74.74 0 0 1 .322-.307.9.9 0 0 1 .393-.093.677.457 0 0 1 .415.099l1.619.865c.245.131.555.416.555.804V9.7c0 .39-.31.673-.555.804l-1.619.867a.677.457 0 0 1-.415.1m.167-.83 1.582-.666c.136-.072.176-.064.176-.274V6.47c0-.209-.04-.2-.176-.272l-1.582-.667c-.032.096-.074.186-.074.29v4.529c0 .104.042.193.074.29" color="#000"/>
                <path fill-opacity="0.965" stroke="none" d="M16.107 11.485a.677.457 0 0 1-.415-.098l-1.62-.867a1.544 1.043 0 0 1-.554-.804V6.485c0-.388.31-.672.555-.804l1.62-.865a.9.9 0 0 1 .414-.1.677.457 0 0 1 .394.094c.186.096.257.2.323.307.13.214.193.465.193.719v4.529c0 .253-.062.504-.193.719a.73.73 0 0 1-.323.307.677.457 0 0 1-.394.094m-.167-.83c.032-.097.076-.186.076-.29V5.836c0-.104-.043-.194-.076-.29l-1.545.667c-.135.072-.177.064-.177.272v3.231c0 .208.042.2.177.273z" color="#000"/>
                <rect width="9.674" height="6.474" x="2.998" y="4.853" fill="none" stroke-dashoffset="52.535" stroke-linejoin="round" rx="0.764" ry="0.401"/>
            </g>
            <path fill="none" stroke-linecap="round" d="m4.967 15.137 5.634-.013" transform="matrix(1.082294 0 0 1.350174 -.638 -4.436)"/>
        </g>
        <rect width="2.005" height="2.594" x="6.746" y="7.786" fill="none" stroke-dashoffset="39.987" stroke-linecap="round" stroke-linejoin="round" rx="0.401" ry="0.519"/>
    </g>
</svg>
