<?xml version="1.0" encoding="UTF-8" standalone="no"?>
<!-- Created with Inkscape (http://www.inkscape.org/) -->

<svg
   sodipodi:docname="coverflow-symbolic.svg"
   inkscape:version="1.2.2 (b0a8486541, 2022-12-01)"
   id="svg3466"
   version="1.1"
   viewBox="0 0 16.933333 16.933334"
   height="64"
   width="64"
   xmlns:inkscape="http://www.inkscape.org/namespaces/inkscape"
   xmlns:sodipodi="http://sodipodi.sourceforge.net/DTD/sodipodi-0.dtd"
   xmlns="http://www.w3.org/2000/svg"
   xmlns:svg="http://www.w3.org/2000/svg">
  <sodipodi:namedview
     id="namedview3468"
     pagecolor="#ffffff"
     bordercolor="#666666"
     borderopacity="1.0"
     inkscape:pageshadow="2"
     inkscape:pageopacity="0.0"
     inkscape:pagecheckerboard="0"
     inkscape:document-units="mm"
     showgrid="true"
     units="px"
     inkscape:zoom="2.8293902"
     inkscape:cx="-31.808975"
     inkscape:cy="124.23172"
     inkscape:window-width="2560"
     inkscape:window-height="1351"
     inkscape:window-x="2560"
     inkscape:window-y="53"
     inkscape:window-maximized="1"
     inkscape:current-layer="layer2"
     inkscape:showpageshadow="0"
     inkscape:deskcolor="#d1d1d1"
     inkscape:lockguides="false">
    <inkscape:grid
       type="xygrid"
       id="grid1030" />
  </sodipodi:namedview>
  <defs
     id="defs3463">
    <inkscape:perspective
       sodipodi:type="inkscape:persp3d"
       inkscape:vp_x="0 : 8.466667 : 1"
       inkscape:vp_y="0 : 1000 : 0"
       inkscape:vp_z="16.933333 : 8.466667 : 1"
       inkscape:persp3d-origin="8.4666665 : 5.6444447 : 1"
       id="perspective4871" />
    <inkscape:path-effect
       effect="fillet_chamfer"
       id="path-effect130490"
       is_visible="true"
       lpeversion="1"
       satellites_param="F,0,0,1,0,2,0,1 @ F,0,0,1,0,2,0,1 @ F,0,0,1,0,2,0,1 @ F,0,0,1,0,2,0,1"
       unit="px"
       method="auto"
       mode="F"
       radius="2"
       chamfer_steps="1"
       flexible="false"
       use_knot_distance="true"
       apply_no_radius="true"
       apply_with_radius="true"
       only_selected="false"
       hide_knots="false"
       nodesatellites_param="F,0,0,1,0,2,0,1 @ F,0,0,1,0,2,0,1 @ F,0,0,1,0,2,0,1 @ F,0,0,1,0,2,0,1" />
  </defs>
  <g
     inkscape:label="Layer 1"
     inkscape:groupmode="layer"
     id="layer1" />
  <g
     inkscape:groupmode="layer"
     id="layer2"
     inkscape:label="Layer 2"
     transform="matrix(0.99774183,0,0,0.77115443,0.71193726,0.91633828)">
    <g
       id="g2666"
       transform="matrix(1.2594292,0,0,1.5615248,-2.0148681,-6.7303432)"
       style="fill:#000000;fill-opacity:0;stroke:#000000;stroke-width:0.559234;stroke-dasharray:none;stroke-opacity:1" />
    <g
       id="g27602"
       transform="matrix(0.99277462,0,0,0.99277462,0.05616722,0.07606922)"
       style="stroke-width:0.858316;stroke-dasharray:none">
      <g
         id="g2652"
         style="fill:#000000;fill-opacity:0;stroke:#000000;stroke-width:0.710035;stroke-dasharray:none;stroke-opacity:1"
         transform="matrix(1.0822937,0,0,1.3501739,-0.63816917,-4.4362993)">
        <g
           id="g1028"
           transform="matrix(0.83956608,0,0,1.0356734,1.1973153,1.6060768)"
           style="fill:#000000;fill-opacity:0;stroke:#000000;stroke-width:0.761449;stroke-dasharray:none;stroke-opacity:1">
          <g
             id="g1034"
             transform="matrix(1.0572353,0,0,-0.71455331,-21.791344,225.59896)"
             style="fill:#000000;fill-opacity:1;stroke:#000000;stroke-width:0.876068;stroke-dasharray:none;stroke-opacity:0">
            <path
               style="color:#000000;fill:#000000;fill-opacity:1;stroke:#000000;stroke-width:0.876068;stroke-dasharray:none;stroke-opacity:0"
               d="m 20.191152,299.66796 c -0.152119,0.002 -0.283123,0.0654 -0.371094,0.13281 -0.17594,0.13474 -0.242446,0.27997 -0.304687,0.42969 -0.124482,0.29943 -0.185547,0.65031 -0.185547,1.00585 v 6.3379 c 0,0.35554 0.06106,0.70642 0.185547,1.00585 0.06224,0.14972 0.128748,0.29495 0.304687,0.42969 0.08797,0.0674 0.218979,0.12916 0.371094,0.13086 0.152116,0.002 0.296554,-0.0626 0.392578,-0.13867 l 1.53125,-1.21094 c 0.232498,-0.18412 0.525391,-0.58185 0.525391,-1.125 v -4.52148 c 0,-0.54315 -0.292885,-0.94087 -0.525391,-1.125 l -1.53125,-1.21289 c -0.09602,-0.0761 -0.240459,-0.14038 -0.392578,-0.13867 z m 0.158203,1.1621 1.496146,0.93165 c 0.128075,0.10142 0.166015,0.091 0.166015,0.38281 v 4.52148 c 0,0.2918 -0.03793,0.27943 -0.166015,0.38086 l -1.496146,0.9336 c -0.0307,-0.13528 -0.07031,-0.2605 -0.07031,-0.40625 v -6.3379 c 0,-0.14532 0.03975,-0.27119 0.07031,-0.40625 z"
               id="path14264"
               sodipodi:nodetypes="cccsscccccsscccccssccssc" />
          </g>
          <g
             id="g1038"
             transform="matrix(1.0572353,0,0,-0.71455331,-21.795226,225.54112)"
             style="fill:#000000;fill-opacity:0.965186;stroke:#000000;stroke-width:0.876068;stroke-dasharray:none;stroke-opacity:1">
            <path
               style="color:#000000;fill:#000000;fill-opacity:0.965186;stroke:#000000;stroke-width:0.876068;stroke-linecap:round;stroke-linejoin:round;stroke-dasharray:none;stroke-opacity:0"
               d="m 35.850097,299.5658 c -0.152119,-0.002 -0.296555,0.0626 -0.392578,0.13867 l -1.53125,1.21289 c -0.232506,0.18413 -0.52539,0.58185 -0.52539,1.125 v 4.52148 c 0,0.54315 0.292893,0.94088 0.52539,1.125 l 1.53125,1.21094 c 0.09602,0.0761 0.240463,0.14038 0.392578,0.13867 0.152116,-0.002 0.285078,-0.0635 0.373047,-0.13086 0.175939,-0.13474 0.242447,-0.27997 0.304688,-0.42969 0.124483,-0.29943 0.183594,-0.65031 0.183594,-1.00585 v -6.3379 c 0,-0.35554 -0.05911,-0.70642 -0.183594,-1.00585 -0.06224,-0.14972 -0.128747,-0.29495 -0.304688,-0.42969 -0.08797,-0.0674 -0.220927,-0.13111 -0.373047,-0.13281 z m -0.158203,1.1621 c 0.03057,0.13508 0.07227,0.26089 0.07227,0.40625 v 6.3379 c 0,0.14579 -0.04155,0.27095 -0.07227,0.40625 l -1.460883,-0.9336 c -0.128084,-0.10143 -0.167969,-0.0891 -0.167969,-0.38086 v -4.52148 c 0,-0.29181 0.03989,-0.28139 0.167969,-0.38281 z"
               id="path14266"
               sodipodi:nodetypes="cccsscccccssccccssccsscc" />
          </g>
          <rect
             style="display:inline;opacity:1;fill:#000000;fill-opacity:0;stroke:#000000;stroke-width:0.761449;stroke-linejoin:round;stroke-dasharray:none;stroke-dashoffset:52.5354;stroke-opacity:1;paint-order:normal"
             id="rect7847"
             width="9.6742821"
             height="6.4741611"
             x="2.9982321"
             y="4.8527794"
             ry="0.40096685"
             rx="0.76381439"
             inkscape:label="rect7847" />
        </g>
        <path
           style="fill:#000000;fill-opacity:0;fill-rule:evenodd;stroke:#000000;stroke-width:0.710035;stroke-linecap:round;stroke-linejoin:miter;stroke-dasharray:none;stroke-opacity:1"
           d="m 4.9667305,15.136593 5.6340845,-0.01302"
           id="path1273" />
      </g>
      <rect
         style="opacity:1;fill:#000000;fill-opacity:0;stroke:#000000;stroke-width:0.858316;stroke-linecap:round;stroke-linejoin:round;stroke-dasharray:none;stroke-dashoffset:39.9874;stroke-opacity:1;paint-order:normal"
         id="rect27562"
         width="2.0045266"
         height="2.5935142"
         x="6.7461357"
         y="7.786335"
         rx="0.40091178"
         ry="0.51871145" />
    </g>
  </g>
</svg>
