<?xml version="1.0" encoding="UTF-8"?>
<svg viewBox="0 0 16 16" xmlns="http://www.w3.org/2000/svg">
    <g fill="#363636" transform="rotate(90 7.75 8.25)">
        <path d="M2.95 1c-.277 0-.5.223-.5.5v6.555A2.5 2.5 0 0 1 2.95 8a2.5 2.5 0 0 1 .5.05V1.5c0-.277-.223-.5-.5-.5m.5 11.945a2.5 2.5 0 0 1-.5.055 2.5 2.5 0 0 1-.5-.051v1.55a.499.499 0 1 0 1 0zM7.5 1c-.277 0-.5.223-.5.5v1.555A2.5 2.5 0 0 1 7.5 3a2.5 2.5 0 0 1 .5.05V1.5c0-.277-.223-.5-.5-.5M8 7.945A2.5 2.5 0 0 1 7.5 8a2.5 2.5 0 0 1-.5-.05v6.55a.499.499 0 1 0 1 0zM12.05 1c-.277 0-.5.223-.5.5v6.555a2.5 2.5 0 0 1 .5-.055 2.5 2.5 0 0 1 .5.05V1.5c0-.277-.223-.5-.5-.5m.5 11.945a2.5 2.5 0 0 1-.5.055 2.5 2.5 0 0 1-.5-.05v1.55a.499.499 0 1 0 1 0z"/>
        <circle cx="2.95" cy="10.5" r="1.5"/>
        <circle cx="7.5" cy="5.5" r="1.5"/>
        <circle cx="12.05" cy="10.5" r="1.5"/>
    </g>
</svg>
