<?xml version="1.0" encoding="UTF-8"?>
<svg fill="none" viewBox="0 0 16 16" xmlns="http://www.w3.org/2000/svg">
    <path stroke="#000" stroke-linecap="round" stroke-linejoin="round" stroke-width="1.333" d="M9.51 10.625 8.396 9.522c-.536-.532-.805-.798-1.113-.895a1.33 1.33 0 0 0-.83.009c-.306.103-.569.375-1.094.92l-2.663 2.63m6.813-1.561.227-.226c.538-.533.807-.799 1.114-.896a1.33 1.33 0 0 1 .832.01c.306.104.568.376 1.094.921l.557.561m-3.824-.37 2.674 2.679m0 0c-.238.03-.547.03-.983.03H4.8c-.747 0-1.12 0-1.405-.146a1.33 1.33 0 0 1-.583-.583 1.3 1.3 0 0 1-.116-.418m9.487 1.117a1.3 1.3 0 0 0 .422-.116 1.33 1.33 0 0 0 .583-.583c.145-.285.145-.658.145-1.405v-.205M2.696 12.187c-.03-.239-.03-.549-.03-.987V4.8c0-.747 0-1.12.146-1.405a1.33 1.33 0 0 1 .583-.583c.285-.145.658-.145 1.405-.145h6.4c.747 0 1.12 0 1.405.145a1.33 1.33 0 0 1 .583.583c.145.285.145.658.145 1.405v6.195m-2-4.995a1.333 1.333 0 1 1-2.666 0 1.333 1.333 0 0 1 2.666 0"/>
</svg>
