<?xml version="1.0" encoding="UTF-8"?>
<svg fill="none" viewBox="0 0 16 16" xmlns="http://www.w3.org/2000/svg">
    <path fill="#1c274c" d="M4.667 6a.667.667 0 1 1-1.334 0 .667.667 0 0 1 1.334 0m0 2a.667.667 0 1 1-1.334 0 .667.667 0 0 1 1.334 0m2 0a.667.667 0 1 1-1.334 0 .667.667 0 0 1 1.334 0m0-2a.667.667 0 1 1-1.334 0 .667.667 0 0 1 1.334 0m2 0a.667.667 0 1 1-1.334 0 .667.667 0 0 1 1.334 0m0 2a.667.667 0 1 1-1.334 0 .667.667 0 0 1 1.334 0m2-2a.667.667 0 1 1-1.334 0 .667.667 0 0 1 1.334 0m0 2a.667.667 0 1 1-1.334 0 .667.667 0 0 1 1.334 0m2-2a.667.667 0 1 1-1.334 0 .667.667 0 0 1 1.334 0m0 2a.667.667 0 1 1-1.334 0 .667.667 0 0 1 1.334 0"/>
    <path stroke="#1c274c" d="M1.333 7.333c0-1.885 0-2.828.586-3.414s1.529-.586 3.414-.586h5.334c1.885 0 2.828 0 3.414.586s.586 1.529.586 3.414v1.334c0 1.885 0 2.828-.586 3.414s-1.529.586-3.414.586H5.333c-1.885 0-2.828 0-3.414-.586s-.586-1.529-.586-3.414z"/>
    <path stroke="#1c274c" stroke-linecap="round" d="M4.667 10.667h6.666"/>
</svg>
