<?xml version="1.0" encoding="UTF-8"?>
<!--
SPDX-FileCopyrightText: 2021 Romain Vigier <contact AT romainvigier.fr>
SPDX-License-Identifier: CC-BY-SA-4.0
-->
<svg viewBox="0 0 16 16" xmlns="http://www.w3.org/2000/svg">
    <path d="M3 11c0 1.65 1.35 3 3 3v-1c-1.11 0-2-.89-2-2zm7-9v1c1.11 0 2 .89 2 2h1c0-1.65-1.35-3-3-3M2 0C.892 0 0 .892 0 2v6c0 1.108.892 2 2 2h4V8l-.334-1H3.334L3 8H2l2-6h1l1.467 4.402A3.01 3.01 0 0 1 9 5V2c0-1.108-.892-2-2-2zm2.5 3.5L3.666 6h1.668z"/>
    <path d="M9 6c-1.108 0-2 .892-2 2v6c0 1.108.892 2 2 2h5c1.108 0 2-.892 2-2V8c0-1.108-.892-2-2-2zm2 2h1v1h2v1h-.54c-.153.983-.743 1.78-1.394 2.393a6 6 0 0 0 1.532.617.5.5 0 0 1 .392.588.5.5 0 0 1-.588.392s-1.083-.199-2.168-.918a9 9 0 0 1-1.537.887.5.5 0 0 1-.656-.262.5.5 0 0 1 .262-.656s.507-.22 1.12-.625a4.5 4.5 0 0 1-.87-1.193.5.5 0 0 1 .224-.67.5.5 0 0 1 .381-.028.5.5 0 0 1 .29.252c.201.404.48.74.79 1.02.56-.497 1.038-1.11 1.201-1.797H9V9h2z"/>
</svg>
