<?xml version="1.0" encoding="UTF-8"?>
<!--
SPDX-FileCopyrightText: 2021 Romain Vigier <contact AT romainvigier.fr>
SPDX-License-Identifier: CC-BY-SA-4.0
-->
<svg width="16" height="16" version="1.1" viewBox="0 0 16 16" xmlns="http://www.w3.org/2000/svg">
 <path d="m3 11c0 1.6509 1.3491 3 3 3v-1c-1.1105 0-2-0.88951-2-2h-1z"/>
 <path d="m10 2v1c1.1105 0 2 0.88951 2 2h1c0-1.6509-1.3491-3-3-3z"/>
 <path d="m2 0c-1.108 0-2 0.892-2 2v6c0 1.108 0.892 2 2 2h4v-2l-0.33398-1h-2.332l-0.33398 1h-1l2-6h1l1.4668 4.4023c0.53433-0.84006 1.4736-1.4023 2.5332-1.4023v-3c0-1.108-0.892-2-2-2h-5zm2.5 3.5-0.83398 2.5h1.668l-0.83398-2.5z"/>
 <path d="m9 6c-1.108 0-2 0.892-2 2v6c0 1.108 0.892 2 2 2h5c1.108 0 2-0.892 2-2v-6c0-1.108-0.892-2-2-2zm2 2h1v1h2v1h-0.53906c-0.15383 0.98264-0.74444 1.7805-1.3945 2.3926 0.79475 0.45608 1.5312 0.61719 1.5312 0.61719a0.5 0.5 0 0 1 0.39258 0.58789 0.5 0.5 0 0 1-0.58789 0.39258s-1.0838-0.19928-2.168-0.91797c-0.81221 0.5775-1.5371 0.88672-1.5371 0.88672a0.5 0.5 0 0 1-0.65625-0.26172 0.5 0.5 0 0 1 0.26172-0.65625s0.50729-0.21982 1.1211-0.625c-0.33276-0.3295-0.63597-0.72311-0.87109-1.1934a0.5 0.5 0 0 1 0.22461-0.66992 0.5 0.5 0 0 1 0.38086-0.02734 0.5 0.5 0 0 1 0.28906 0.25195c0.20204 0.40409 0.48152 0.74022 0.79102 1.0195 0.55892-0.49663 1.0381-1.1094 1.2012-1.7969h-3.4395v-1h2z"/>
</svg>
