<?xml version="1.0" encoding="UTF-8"?>
<svg fill="none" viewBox="0 0 16 16" xmlns="http://www.w3.org/2000/svg">
    <path fill="#000" d="M2 6.667A.667.667 0 0 1 2.667 6h8a.667.667 0 0 1 .666.667v6a.667.667 0 0 1-.666.666h-8A.667.667 0 0 1 2 12.667z" opacity="0.15"/>
    <path stroke="#000" stroke-linecap="round" stroke-linejoin="round" d="M2 8h11.333A.667.667 0 0 0 14 7.333V2.667A.667.667 0 0 0 13.333 2h-6a.667.667 0 0 0-.666.667V6M14 4H6.667m-4 2h8a.667.667 0 0 1 .666.667v6a.667.667 0 0 1-.666.666h-8A.667.667 0 0 1 2 12.667v-6A.667.667 0 0 1 2.667 6"/>
</svg>
